g SM_Icon_Arrow_Long_02
v -0.020772621 -0.038525414 0.89658475
v 0.020772621 -0.038525414 0.89658475
v -0.10703707 -0.038525414 0.009010229
v 0.10703707 -0.038525414 0.009010229
v -0.22640862 -0.038525414 0.009010229
v 0.22640862 -0.038525414 0.009010229
v -0 -0.038525414 -0.26568106
v 0.22640862 0.038525417 0.009010229
v -0 0.038525414 -0.26568106
v 0.10703707 0.038525417 0.009010229
v -0.10703707 0.038525417 0.009010229
v -0.22640862 0.038525417 0.009010229
v -0.020772621 0.038525414 0.89658475
v 0.020772621 0.038525414 0.89658475
v -0 0.038525414 -0.26568106
v -0.10703707 0.038525417 0.009010229
v -0 -0.038525414 -0.26568106
v -0.10703707 -0.038525414 0.009010229
v 0.22640862 -0.038525414 0.009010229
v 0.22640862 0.038525417 0.009010229
v -0 0.038525414 -0.26568106
v -0 -0.038525414 -0.26568106
v 0.10703707 -0.038525414 0.009010229
v 0.10703707 0.038525417 0.009010229
v 0.22640862 0.038525417 0.009010229
v 0.22640862 -0.038525414 0.009010229
v -0.22640862 -0.038525414 0.009010229
v -0.22640862 0.038525417 0.009010229
v -0.10703707 0.038525417 0.009010229
v -0.10703707 -0.038525414 0.009010229
v -0 -0.038525414 -0.26568106
v -0 0.038525414 -0.26568106
v -0.22640862 0.038525417 0.009010229
v -0.22640862 -0.038525414 0.009010229
v -0.10703707 -0.038525414 0.009010229
v -0.10703707 0.038525417 0.009010229
v -0.020772621 0.038525414 0.89658475
v -0.020772621 -0.038525414 0.89658475
v -0.020772621 -0.038525414 0.89658475
v -0.020772621 0.038525414 0.89658475
v 0.020772621 0.038525414 0.89658475
v 0.020772621 -0.038525414 0.89658475
v 0.020772621 -0.038525414 0.89658475
v 0.020772621 0.038525414 0.89658475
v 0.10703707 0.038525417 0.009010229
v 0.10703707 -0.038525414 0.009010229
vt 0.24779528 0.30264446
vt 0.24779525 0.30264446
vt 0.24779528 0.30264446
vt 0.24779522 0.30264446
vt 0.24779525 0.30264443
vt 0.24779522 0.30264446
vt 0.24779528 0.30264443
vt 0.24779522 0.30264446
vt 0.24779528 0.30264443
vt 0.24779522 0.30264446
vt 0.24779528 0.30264446
vt 0.24779525 0.30264443
vt 0.24779528 0.30264446
vt 0.24779525 0.30264446
vt 0.24779528 0.30264443
vt 0.24779528 0.30264446
vt 0.24779528 0.30264443
vt 0.24779528 0.30264446
vt 0.24779522 0.30264446
vt 0.24779522 0.30264446
vt 0.24779528 0.30264443
vt 0.24779528 0.30264443
vt 0.24779522 0.30264446
vt 0.24779522 0.30264446
vt 0.24779522 0.30264446
vt 0.24779522 0.30264446
vt 0.24779525 0.30264443
vt 0.24779525 0.30264443
vt 0.24779528 0.30264446
vt 0.24779528 0.30264446
vt 0.24779528 0.30264443
vt 0.24779528 0.30264443
vt 0.24779525 0.30264443
vt 0.24779525 0.30264443
vt 0.24779528 0.30264446
vt 0.24779528 0.30264446
vt 0.24779528 0.30264446
vt 0.24779528 0.30264446
vt 0.24779528 0.30264446
vt 0.24779528 0.30264446
vt 0.24779525 0.30264446
vt 0.24779525 0.30264446
vt 0.24779525 0.30264446
vt 0.24779525 0.30264446
vt 0.24779522 0.30264446
vt 0.24779522 0.30264446
vn -0 -1 0
vn -0 -1 0
vn -0 -1 0
vn -0 -1 0
vn -0 -1 0
vn -0 -1 0
vn -0 -1 0
vn -0 1 0
vn -0 1 0
vn -0 1 0
vn -0 1 0
vn -0 1 0
vn -0 1 0
vn -0 1 0
vn -0 1 0
vn -0 1 0
vn -0 -1 0
vn -0 -1 0
vn 0.77166504 0 -0.636029
vn 0.77166504 0 -0.636029
vn 0.77166504 0 -0.636029
vn 0.77166504 0 -0.636029
vn -0 0 1
vn -0 0 1
vn -0 0 1
vn -0 0 1
vn -0 0 1
vn -0 0 1
vn -0 0 1
vn -0 0 1
vn -0.77166504 0 -0.636029
vn -0.77166504 0 -0.636029
vn -0.77166504 0 -0.636029
vn -0.77166504 0 -0.636029
vn -0.9953101 0 0.09673541
vn -0.9953101 0 0.09673541
vn -0.9953101 0 0.09673541
vn -0.9953101 0 0.09673541
vn -0 0 1
vn -0 0 1
vn -0 0 1
vn -0 0 1
vn 0.9953101 0 0.09673541
vn 0.9953101 0 0.09673541
vn 0.9953101 0 0.09673541
vn 0.9953101 0 0.09673541
g SM_Icon_Arrow_Long_02_0
f 11/11/11 15/15/15 12/12/12
f 17/17/17 3/3/3 5/5/5
f 9/9/9 10/10/10 8/8/8
f 16/16/16 10/10/10 9/9/9
f 13/13/13 10/10/10 16/16/16
f 14/14/14 10/10/10 13/13/13
f 4/4/4 7/7/7 6/6/6
f 4/4/4 18/18/18 7/7/7
f 4/4/4 1/1/1 18/18/18
f 4/4/4 2/2/2 1/1/1
f 21/21/21 20/20/20 19/19/19
f 22/22/22 21/21/21 19/19/19
f 25/25/25 24/24/24 23/23/23
f 26/26/26 25/25/25 23/23/23
f 29/29/29 28/28/28 27/27/27
f 30/30/30 29/29/29 27/27/27
f 33/33/33 32/32/32 31/31/31
f 34/34/34 33/33/33 31/31/31
f 37/37/37 36/36/36 35/35/35
f 38/38/38 37/37/37 35/35/35
f 41/41/41 40/40/40 39/39/39
f 42/42/42 41/41/41 39/39/39
f 45/45/45 44/44/44 43/43/43
f 46/46/46 45/45/45 43/43/43
